<svg width="52" height="52" viewBox="0 0 52 52" fill="none" xmlns="http://www.w3.org/2000/svg">
<g clip-path="url(#clip0_979_759)">
<circle cx="26" cy="26" r="26" fill="#F6F6F7"/>
<g clip-path="url(#clip1_979_759)">
<path d="M29.8959 18.9763C29.7739 15.9713 27.6795 12.2592 23.3849 12.2796H22.9462H22.5073C18.2127 12.2592 16.1184 15.9713 15.9963 18.9763C15.8737 21.9965 16.9254 25.48 19.0615 27.3323C20.0632 28.2008 21.5824 28.6184 22.9462 28.6394C24.3097 28.6184 25.829 28.2008 26.8306 27.3323C28.9669 25.48 30.0185 21.9965 29.8959 18.9763V18.9763Z" fill="#0F1933"/>
<path d="M36.823 41.0001C36.9508 37.5459 34.7755 36.2176 34.7755 36.2176L25.6106 31.0365H20.3894L11.2248 36.2176C11.2248 36.2176 9.04951 37.5459 9.17729 41.0001H36.823Z" fill="#F9C5B8"/>
<path d="M19.7375 31.7067H26.2627C24.8169 30.9259 25.2065 27.9247 25.2065 27.9247H20.7936C20.7936 27.9248 21.1833 30.9259 19.7375 31.7067V31.7067Z" fill="#F9C5B8"/>
<path d="M20.7031 30.1811C22.2621 30.0031 23.788 29.4804 25.1594 28.708C25.1648 28.2472 25.2064 27.9247 25.2064 27.9247H20.7935C20.7936 27.9248 20.9466 29.1073 20.7031 30.1811V30.1811Z" fill="#F5A997"/>
<path d="M30.6111 21.5728C30.4737 22.6345 29.8731 23.4227 29.2694 23.3335C28.6657 23.2442 28.2878 22.3112 28.425 21.2497C28.5624 20.188 29.1631 19.3998 29.7668 19.489C30.3704 19.5783 30.7483 20.5112 30.6111 21.5728V21.5728Z" fill="#F5A997"/>
<path d="M29.2606 22.5452C29.1787 22.5452 29.1043 22.4897 29.0839 22.4066C28.9335 21.7975 28.865 21.0756 29.4987 20.3405C29.5645 20.2643 29.6794 20.2556 29.7557 20.3215C29.8319 20.3871 29.8405 20.5022 29.7748 20.5784C29.2246 21.2166 29.3123 21.8117 29.4376 22.3193C29.4618 22.417 29.4022 22.5158 29.3044 22.5398C29.2898 22.5436 29.275 22.5452 29.2606 22.5452Z" fill="#E9837B"/>
<path d="M29.8734 21.4871C29.8621 21.4871 29.8508 21.486 29.8393 21.4839C29.5468 21.4283 29.2455 21.4834 29.2424 21.4839C29.1432 21.5023 29.0483 21.4374 29.0297 21.3385C29.0112 21.2397 29.0759 21.1446 29.1747 21.1258C29.1897 21.123 29.5451 21.0571 29.9074 21.1258C30.0062 21.1446 30.0712 21.2399 30.0524 21.3389C30.0357 21.4263 29.9593 21.4871 29.8734 21.4871V21.4871Z" fill="#E9837B"/>
<path d="M15.3891 21.5728C15.5265 22.6345 16.1271 23.4227 16.7308 23.3335C17.3345 23.2442 17.7125 22.3112 17.5752 21.2497C17.4379 20.188 16.8372 19.3998 16.2335 19.489C15.6298 19.5783 15.2518 20.5112 15.3891 21.5728Z" fill="#F5A997"/>
<path d="M16.7392 22.5453C16.7248 22.5453 16.71 22.5436 16.6954 22.5399C16.5976 22.5158 16.538 22.4171 16.5621 22.3194C16.6875 21.8117 16.7752 21.2167 16.225 20.5785C16.1593 20.5022 16.1678 20.3872 16.2441 20.3215C16.3203 20.2558 16.4354 20.2644 16.5011 20.3405C17.1348 21.0756 17.0664 21.7976 16.916 22.4067C16.8955 22.4897 16.821 22.5453 16.7392 22.5453Z" fill="#E9837B"/>
<path d="M16.1269 21.4872C16.041 21.4872 15.9646 21.4264 15.9481 21.3391C15.9293 21.2401 15.9942 21.1447 16.0931 21.1259C16.4556 21.0572 16.8108 21.1231 16.8258 21.1259C16.9246 21.1447 16.9896 21.24 16.9708 21.3391C16.952 21.4377 16.8567 21.5031 16.758 21.484C16.7529 21.4832 16.4525 21.4287 16.1611 21.484C16.1496 21.4862 16.1382 21.4872 16.1269 21.4872Z" fill="#E9837B"/>
<path d="M29.1137 18.9002C29.0054 15.8716 27.1467 12.1301 23.3353 12.1508H22.9459H22.5564C18.745 12.1301 16.8864 15.8716 16.7781 18.9002C16.6693 21.9442 17.6026 25.455 19.4984 27.322C20.3873 28.1973 21.7356 28.6183 22.9459 28.6395C24.1561 28.6183 25.5044 28.1973 26.3933 27.322C28.2892 25.4551 29.2225 21.9442 29.1137 18.9002V18.9002Z" fill="#F9C5B8"/>
<path d="M25.6106 31.0365L34.7755 36.2176C34.7755 36.2176 36.9508 37.5459 36.823 41.0001H9.17729C9.04951 37.5459 11.2248 36.2176 11.2248 36.2176L20.3894 31.0365C20.3894 31.0365 23.1564 32.7354 25.6106 31.0365V31.0365Z" fill="#46B8B0"/>
<path d="M23.0005 31.7887C21.5484 31.7289 20.3897 31.0365 20.3897 31.0365L18.7453 31.9662L21.2972 34.8369L23.0005 33.4802V31.7887Z" fill="#38938D"/>
<path d="M23 31.7887C24.452 31.7289 25.6108 31.0365 25.6108 31.0365L27.2552 31.9662L24.7033 34.8369L23 33.4802V31.7887Z" fill="#38938D"/>
<path d="M18.7453 12.5488C18.7453 12.5488 15.3611 12.878 16.2336 19.489C16.2336 19.489 17.0147 19.4821 16.9893 22.1112H17.3488C17.3488 22.1112 17.5185 20.1032 17.5809 18.683C17.5809 18.683 18.4349 17.304 19.2622 14.7611L18.7453 12.5488Z" fill="#0F1933"/>
<path d="M25.8915 12.2795C25.8915 12.2795 30.9597 12.2502 29.6927 19.489C29.6927 19.489 28.9116 19.4821 28.937 22.1113H28.5776C28.5776 22.1113 28.4078 20.1032 28.3454 18.6831C28.3454 18.6831 26.7188 17.8073 25.8914 15.2644V12.2795H25.8915Z" fill="#0F1933"/>
<path d="M25.4107 14.8959C27.124 14.5941 30.1806 14.0929 30.1306 12.6472C28.8482 12.5321 29.3407 11.6964 28.6017 11.0709C28.1684 10.7042 27.696 11.049 27.2197 10.8734C26.639 10.6593 26.8538 10.3705 26.6273 9.82724C26.1706 8.73235 25.4385 8.8832 24.5502 9.37003C23.4941 9.94873 22.7516 10.0227 21.5705 10.0838C20.403 10.1442 19.2109 10.5741 18.3661 11.4351C17.1298 12.6951 17.8483 14.4733 19.3819 14.8484C21.402 15.3427 23.3739 15.2548 25.4107 14.8959Z" fill="#0F1933"/>
</g>
<g clip-path="url(#clip2_979_759)">
<path d="M35.0002 35.8432L26.0454 32.8595C26.1185 32.6739 26.2845 32.5386 26.4813 32.5108L32.019 31.6952L35.0002 35.8432Z" fill="#FEC461"/>
<path d="M34.9998 35.8433V41.0097L30.0472 43.6534C29.8559 43.7546 29.6284 43.738 29.4537 43.6084L34.9998 35.8433Z" fill="#F7B84E"/>
<path d="M35.0002 35.8433L29.4539 43.6081C29.2826 43.4818 29.1951 43.2653 29.232 43.0487L30.1767 37.4523L35.0002 35.8433Z" fill="#FEC461"/>
<path d="M35 35.8433L30.1767 37.4523L26.1715 33.4864C26.0171 33.3346 25.9606 33.1065 26.0281 32.9015C26.034 32.8874 26.0365 32.8731 26.0453 32.8596L35 35.8433Z" fill="#F7B84E"/>
<path d="M34.9999 26.281V35.8433L32.0187 31.6949L34.4964 26.5988C34.5892 26.4045 34.7861 26.281 34.9999 26.281Z" fill="#FEC461"/>
<path d="M37.9812 31.6949L35 35.8433V26.281C35.2137 26.281 35.4106 26.4045 35.5034 26.5988L37.9812 31.6949Z" fill="#F7B84E"/>
<path d="M43.9548 32.8595L35 35.8432L37.9812 31.6949L43.5188 32.5105C43.7157 32.5386 43.8817 32.6736 43.9548 32.8595Z" fill="#FEC461"/>
<path d="M43.831 33.4864L39.8233 37.4523L35 35.8433L43.9548 32.8596C43.9632 32.8733 43.966 32.8877 43.9719 32.9015C44.0391 33.1068 43.9829 33.3346 43.831 33.4864Z" fill="#F7B84E"/>
<path d="M40.5461 43.6081L35 35.8433L39.8233 37.4523L40.7683 43.0487C40.8049 43.2655 40.7177 43.4818 40.5461 43.6081Z" fill="#FEC461"/>
<path d="M40.5461 43.6081C40.3717 43.7377 40.1439 43.7546 39.953 43.6531L35 41.0097V35.8433L40.5461 43.6081Z" fill="#F7B84E"/>
</g>
</g>
<defs>
<clipPath id="clip0_979_759">
<rect width="52" height="52" fill="white"/>
</clipPath>
<clipPath id="clip1_979_759">
<rect width="32" height="32" fill="white" transform="translate(7 9)"/>
</clipPath>
<clipPath id="clip2_979_759">
<rect width="18" height="18" fill="white" transform="translate(26 26)"/>
</clipPath>
</defs>
</svg>
